<mxfile host="app.diagrams.net" modified="2023-03-29T14:31:59.623Z" agent="Mozilla/5.0 (Windows NT 10.0; Win64; x64) AppleWebKit/537.36 (KHTML, like Gecko) Chrome/111.0.0.0 Safari/537.36 Edg/111.0.1661.54" etag="grHa2_qm-X1OE0Z42Bin" version="21.1.2" type="google">
  <diagram id="C5RBs43oDa-KdzZeNtuy" name="Page-1">
    <mxGraphModel grid="1" page="1" gridSize="10" guides="1" tooltips="1" connect="1" arrows="1" fold="1" pageScale="1" pageWidth="827" pageHeight="1169" math="0" shadow="0">
      <root>
        <mxCell id="WIyWlLk6GJQsqaUBKTNV-0" />
        <mxCell id="WIyWlLk6GJQsqaUBKTNV-1" parent="WIyWlLk6GJQsqaUBKTNV-0" />
        <mxCell id="WIyWlLk6GJQsqaUBKTNV-2" value="" style="rounded=1;html=1;jettySize=auto;orthogonalLoop=1;fontSize=11;endArrow=block;endFill=0;endSize=8;strokeWidth=1;shadow=0;labelBackgroundColor=none;edgeStyle=orthogonalEdgeStyle;fontColor=default;" edge="1" parent="WIyWlLk6GJQsqaUBKTNV-1" source="WIyWlLk6GJQsqaUBKTNV-3">
          <mxGeometry relative="1" as="geometry">
            <mxPoint x="220" y="170" as="targetPoint" />
          </mxGeometry>
        </mxCell>
        <mxCell id="WIyWlLk6GJQsqaUBKTNV-3" value="Bắt đầu" style="rounded=1;whiteSpace=wrap;html=1;fontSize=12;glass=0;strokeWidth=1;shadow=0;labelBackgroundColor=none;" vertex="1" parent="WIyWlLk6GJQsqaUBKTNV-1">
          <mxGeometry x="160" y="80" width="120" height="40" as="geometry" />
        </mxCell>
        <mxCell id="qnE6hqJ-58F6FV4E2Yw0-5" style="edgeStyle=orthogonalEdgeStyle;rounded=1;orthogonalLoop=1;jettySize=auto;html=1;exitX=0.5;exitY=1;exitDx=0;exitDy=0;entryX=0.5;entryY=0;entryDx=0;entryDy=0;labelBackgroundColor=none;fontColor=default;" edge="1" parent="WIyWlLk6GJQsqaUBKTNV-1" source="qnE6hqJ-58F6FV4E2Yw0-1">
          <mxGeometry relative="1" as="geometry">
            <mxPoint x="220" y="290" as="targetPoint" />
          </mxGeometry>
        </mxCell>
        <mxCell id="qnE6hqJ-58F6FV4E2Yw0-1" value="Kết nối Blynk và wifi" style="rounded=1;whiteSpace=wrap;html=1;labelBackgroundColor=none;" vertex="1" parent="WIyWlLk6GJQsqaUBKTNV-1">
          <mxGeometry x="160" y="170" width="120" height="60" as="geometry" />
        </mxCell>
        <mxCell id="qnE6hqJ-58F6FV4E2Yw0-8" style="edgeStyle=orthogonalEdgeStyle;rounded=1;orthogonalLoop=1;jettySize=auto;html=1;exitX=0.5;exitY=1;exitDx=0;exitDy=0;entryX=0.5;entryY=0;entryDx=0;entryDy=0;labelBackgroundColor=none;fontColor=default;" edge="1" parent="WIyWlLk6GJQsqaUBKTNV-1" source="qnE6hqJ-58F6FV4E2Yw0-6" target="qnE6hqJ-58F6FV4E2Yw0-7">
          <mxGeometry relative="1" as="geometry" />
        </mxCell>
        <mxCell id="qnE6hqJ-58F6FV4E2Yw0-6" value="Đọc giá trị nhiệt độ và độ ẩm từ cảm biến" style="rounded=1;whiteSpace=wrap;html=1;labelBackgroundColor=none;" vertex="1" parent="WIyWlLk6GJQsqaUBKTNV-1">
          <mxGeometry x="160" y="290" width="120" height="60" as="geometry" />
        </mxCell>
        <mxCell id="qnE6hqJ-58F6FV4E2Yw0-11" style="edgeStyle=orthogonalEdgeStyle;rounded=1;orthogonalLoop=1;jettySize=auto;html=1;exitX=0.5;exitY=1;exitDx=0;exitDy=0;entryX=0.5;entryY=0;entryDx=0;entryDy=0;labelBackgroundColor=none;fontColor=default;" edge="1" parent="WIyWlLk6GJQsqaUBKTNV-1" source="qnE6hqJ-58F6FV4E2Yw0-7" target="qnE6hqJ-58F6FV4E2Yw0-10">
          <mxGeometry relative="1" as="geometry" />
        </mxCell>
        <mxCell id="qnE6hqJ-58F6FV4E2Yw0-7" value="Gửi giá trị nhiệt độ và độ ẩm đến Blynk" style="rounded=1;whiteSpace=wrap;html=1;labelBackgroundColor=none;" vertex="1" parent="WIyWlLk6GJQsqaUBKTNV-1">
          <mxGeometry x="160" y="410" width="120" height="60" as="geometry" />
        </mxCell>
        <mxCell id="qnE6hqJ-58F6FV4E2Yw0-13" value="" style="edgeStyle=orthogonalEdgeStyle;rounded=1;orthogonalLoop=1;jettySize=auto;html=1;labelBackgroundColor=none;fontColor=default;" edge="1" parent="WIyWlLk6GJQsqaUBKTNV-1" source="qnE6hqJ-58F6FV4E2Yw0-10">
          <mxGeometry relative="1" as="geometry">
            <mxPoint x="220" y="650" as="targetPoint" />
          </mxGeometry>
        </mxCell>
        <mxCell id="qnE6hqJ-58F6FV4E2Yw0-16" value="" style="edgeStyle=orthogonalEdgeStyle;rounded=1;orthogonalLoop=1;jettySize=auto;html=1;labelBackgroundColor=none;fontColor=default;" edge="1" parent="WIyWlLk6GJQsqaUBKTNV-1" source="qnE6hqJ-58F6FV4E2Yw0-10" target="qnE6hqJ-58F6FV4E2Yw0-15">
          <mxGeometry relative="1" as="geometry" />
        </mxCell>
        <mxCell id="qnE6hqJ-58F6FV4E2Yw0-10" value="nhiệt độ trên 30 *C" style="rhombus;whiteSpace=wrap;html=1;labelBackgroundColor=none;rounded=1;" vertex="1" parent="WIyWlLk6GJQsqaUBKTNV-1">
          <mxGeometry x="135" y="520" width="170" height="80" as="geometry" />
        </mxCell>
        <mxCell id="qnE6hqJ-58F6FV4E2Yw0-19" style="edgeStyle=orthogonalEdgeStyle;rounded=1;orthogonalLoop=1;jettySize=auto;html=1;exitX=0.5;exitY=1;exitDx=0;exitDy=0;entryX=0.5;entryY=0;entryDx=0;entryDy=0;labelBackgroundColor=none;fontColor=default;" edge="1" parent="WIyWlLk6GJQsqaUBKTNV-1" source="qnE6hqJ-58F6FV4E2Yw0-14" target="qnE6hqJ-58F6FV4E2Yw0-18">
          <mxGeometry relative="1" as="geometry" />
        </mxCell>
        <mxCell id="qnE6hqJ-58F6FV4E2Yw0-14" value="Điều hòa ở chế độ bật" style="rounded=1;whiteSpace=wrap;html=1;labelBackgroundColor=none;" vertex="1" parent="WIyWlLk6GJQsqaUBKTNV-1">
          <mxGeometry x="160" y="650" width="120" height="60" as="geometry" />
        </mxCell>
        <mxCell id="qnE6hqJ-58F6FV4E2Yw0-25" style="edgeStyle=orthogonalEdgeStyle;rounded=1;orthogonalLoop=1;jettySize=auto;html=1;exitX=0.5;exitY=1;exitDx=0;exitDy=0;labelBackgroundColor=none;fontColor=default;" edge="1" parent="WIyWlLk6GJQsqaUBKTNV-1" source="qnE6hqJ-58F6FV4E2Yw0-15">
          <mxGeometry relative="1" as="geometry">
            <mxPoint x="220" y="740" as="targetPoint" />
            <Array as="points">
              <mxPoint x="430" y="740" />
              <mxPoint x="430" y="740" />
            </Array>
          </mxGeometry>
        </mxCell>
        <mxCell id="qnE6hqJ-58F6FV4E2Yw0-15" value="Điều hòa ở chế độ tắt" style="rounded=1;whiteSpace=wrap;html=1;labelBackgroundColor=none;" vertex="1" parent="WIyWlLk6GJQsqaUBKTNV-1">
          <mxGeometry x="370" y="530" width="120" height="60" as="geometry" />
        </mxCell>
        <mxCell id="qnE6hqJ-58F6FV4E2Yw0-23" style="edgeStyle=orthogonalEdgeStyle;rounded=1;orthogonalLoop=1;jettySize=auto;html=1;exitX=0.5;exitY=1;exitDx=0;exitDy=0;labelBackgroundColor=none;fontColor=default;" edge="1" parent="WIyWlLk6GJQsqaUBKTNV-1" source="qnE6hqJ-58F6FV4E2Yw0-18" target="qnE6hqJ-58F6FV4E2Yw0-20">
          <mxGeometry relative="1" as="geometry" />
        </mxCell>
        <mxCell id="qnE6hqJ-58F6FV4E2Yw0-42" value="" style="edgeStyle=orthogonalEdgeStyle;rounded=1;orthogonalLoop=1;jettySize=auto;html=1;" edge="1" parent="WIyWlLk6GJQsqaUBKTNV-1" source="qnE6hqJ-58F6FV4E2Yw0-18" target="qnE6hqJ-58F6FV4E2Yw0-26">
          <mxGeometry relative="1" as="geometry" />
        </mxCell>
        <mxCell id="qnE6hqJ-58F6FV4E2Yw0-18" value="nhiệt độ 16*C" style="rhombus;whiteSpace=wrap;html=1;labelBackgroundColor=none;rounded=1;" vertex="1" parent="WIyWlLk6GJQsqaUBKTNV-1">
          <mxGeometry x="160" y="770" width="120" height="80" as="geometry" />
        </mxCell>
        <mxCell id="qnE6hqJ-58F6FV4E2Yw0-28" style="edgeStyle=orthogonalEdgeStyle;rounded=1;orthogonalLoop=1;jettySize=auto;html=1;exitX=0.5;exitY=1;exitDx=0;exitDy=0;entryX=0.5;entryY=0;entryDx=0;entryDy=0;" edge="1" parent="WIyWlLk6GJQsqaUBKTNV-1" source="qnE6hqJ-58F6FV4E2Yw0-20" target="qnE6hqJ-58F6FV4E2Yw0-27">
          <mxGeometry relative="1" as="geometry" />
        </mxCell>
        <mxCell id="qnE6hqJ-58F6FV4E2Yw0-20" value="Máy sưởi ở chế độ bật" style="rounded=1;whiteSpace=wrap;html=1;labelBackgroundColor=none;" vertex="1" parent="WIyWlLk6GJQsqaUBKTNV-1">
          <mxGeometry x="160" y="890" width="120" height="60" as="geometry" />
        </mxCell>
        <mxCell id="qnE6hqJ-58F6FV4E2Yw0-48" style="edgeStyle=orthogonalEdgeStyle;rounded=1;orthogonalLoop=1;jettySize=auto;html=1;exitX=0.5;exitY=1;exitDx=0;exitDy=0;" edge="1" parent="WIyWlLk6GJQsqaUBKTNV-1" source="qnE6hqJ-58F6FV4E2Yw0-26">
          <mxGeometry relative="1" as="geometry">
            <mxPoint x="220" y="980" as="targetPoint" />
            <Array as="points">
              <mxPoint x="430" y="980" />
            </Array>
          </mxGeometry>
        </mxCell>
        <mxCell id="qnE6hqJ-58F6FV4E2Yw0-26" value="Máy sưởi ở chế độ tắt" style="rounded=1;whiteSpace=wrap;html=1;" vertex="1" parent="WIyWlLk6GJQsqaUBKTNV-1">
          <mxGeometry x="365" y="780" width="130" height="60" as="geometry" />
        </mxCell>
        <mxCell id="qnE6hqJ-58F6FV4E2Yw0-38" style="edgeStyle=orthogonalEdgeStyle;rounded=1;orthogonalLoop=1;jettySize=auto;html=1;exitX=0.5;exitY=1;exitDx=0;exitDy=0;" edge="1" parent="WIyWlLk6GJQsqaUBKTNV-1" source="qnE6hqJ-58F6FV4E2Yw0-27" target="qnE6hqJ-58F6FV4E2Yw0-30">
          <mxGeometry relative="1" as="geometry" />
        </mxCell>
        <mxCell id="qnE6hqJ-58F6FV4E2Yw0-41" value="" style="edgeStyle=orthogonalEdgeStyle;rounded=1;orthogonalLoop=1;jettySize=auto;html=1;" edge="1" parent="WIyWlLk6GJQsqaUBKTNV-1" source="qnE6hqJ-58F6FV4E2Yw0-27" target="qnE6hqJ-58F6FV4E2Yw0-29">
          <mxGeometry relative="1" as="geometry" />
        </mxCell>
        <mxCell id="qnE6hqJ-58F6FV4E2Yw0-27" value="Độ ẩm lớn hơn 80%" style="rhombus;whiteSpace=wrap;html=1;rounded=1;" vertex="1" parent="WIyWlLk6GJQsqaUBKTNV-1">
          <mxGeometry x="135" y="1010" width="170" height="80" as="geometry" />
        </mxCell>
        <mxCell id="qnE6hqJ-58F6FV4E2Yw0-49" style="edgeStyle=orthogonalEdgeStyle;rounded=1;orthogonalLoop=1;jettySize=auto;html=1;exitX=0.5;exitY=1;exitDx=0;exitDy=0;" edge="1" parent="WIyWlLk6GJQsqaUBKTNV-1" source="qnE6hqJ-58F6FV4E2Yw0-29">
          <mxGeometry relative="1" as="geometry">
            <mxPoint x="220" y="1250" as="targetPoint" />
            <Array as="points">
              <mxPoint x="435" y="1250" />
            </Array>
          </mxGeometry>
        </mxCell>
        <mxCell id="qnE6hqJ-58F6FV4E2Yw0-29" value="Máy hút ẩm ở chế độ tắt" style="rounded=1;whiteSpace=wrap;html=1;" vertex="1" parent="WIyWlLk6GJQsqaUBKTNV-1">
          <mxGeometry x="375" y="1020" width="120" height="60" as="geometry" />
        </mxCell>
        <mxCell id="qnE6hqJ-58F6FV4E2Yw0-34" value="" style="edgeStyle=orthogonalEdgeStyle;rounded=1;orthogonalLoop=1;jettySize=auto;html=1;" edge="1" parent="WIyWlLk6GJQsqaUBKTNV-1" source="qnE6hqJ-58F6FV4E2Yw0-30">
          <mxGeometry relative="1" as="geometry">
            <mxPoint x="220" y="1270" as="targetPoint" />
          </mxGeometry>
        </mxCell>
        <mxCell id="qnE6hqJ-58F6FV4E2Yw0-30" value="Máy hút ẩm ở chế độ bật" style="rounded=1;whiteSpace=wrap;html=1;" vertex="1" parent="WIyWlLk6GJQsqaUBKTNV-1">
          <mxGeometry x="160" y="1140" width="120" height="60" as="geometry" />
        </mxCell>
        <mxCell id="qnE6hqJ-58F6FV4E2Yw0-43" value="" style="edgeStyle=orthogonalEdgeStyle;rounded=1;orthogonalLoop=1;jettySize=auto;html=1;" edge="1" parent="WIyWlLk6GJQsqaUBKTNV-1" source="qnE6hqJ-58F6FV4E2Yw0-35" target="qnE6hqJ-58F6FV4E2Yw0-37">
          <mxGeometry relative="1" as="geometry" />
        </mxCell>
        <mxCell id="qnE6hqJ-58F6FV4E2Yw0-44" value="" style="edgeStyle=orthogonalEdgeStyle;rounded=1;orthogonalLoop=1;jettySize=auto;html=1;" edge="1" parent="WIyWlLk6GJQsqaUBKTNV-1" source="qnE6hqJ-58F6FV4E2Yw0-35" target="qnE6hqJ-58F6FV4E2Yw0-36">
          <mxGeometry relative="1" as="geometry" />
        </mxCell>
        <mxCell id="qnE6hqJ-58F6FV4E2Yw0-35" value="Độ ẩm nhỏ hơn 35%" style="rhombus;whiteSpace=wrap;html=1;rounded=1;" vertex="1" parent="WIyWlLk6GJQsqaUBKTNV-1">
          <mxGeometry x="155" y="1270" width="130" height="80" as="geometry" />
        </mxCell>
        <mxCell id="qnE6hqJ-58F6FV4E2Yw0-50" style="edgeStyle=orthogonalEdgeStyle;rounded=1;orthogonalLoop=1;jettySize=auto;html=1;exitX=0.5;exitY=1;exitDx=0;exitDy=0;" edge="1" parent="WIyWlLk6GJQsqaUBKTNV-1" source="qnE6hqJ-58F6FV4E2Yw0-36">
          <mxGeometry relative="1" as="geometry">
            <mxPoint x="220" y="1510" as="targetPoint" />
            <Array as="points">
              <mxPoint x="430" y="1510" />
            </Array>
          </mxGeometry>
        </mxCell>
        <mxCell id="qnE6hqJ-58F6FV4E2Yw0-36" value="Máy phun sương ở chế độ tắt" style="rounded=1;whiteSpace=wrap;html=1;" vertex="1" parent="WIyWlLk6GJQsqaUBKTNV-1">
          <mxGeometry x="370" y="1280" width="120" height="60" as="geometry" />
        </mxCell>
        <mxCell id="qnE6hqJ-58F6FV4E2Yw0-40" value="" style="edgeStyle=orthogonalEdgeStyle;rounded=1;orthogonalLoop=1;jettySize=auto;html=1;" edge="1" parent="WIyWlLk6GJQsqaUBKTNV-1" source="qnE6hqJ-58F6FV4E2Yw0-37" target="qnE6hqJ-58F6FV4E2Yw0-39">
          <mxGeometry relative="1" as="geometry" />
        </mxCell>
        <mxCell id="qnE6hqJ-58F6FV4E2Yw0-37" value="máy phun sương ở chế độ bật" style="rounded=1;whiteSpace=wrap;html=1;" vertex="1" parent="WIyWlLk6GJQsqaUBKTNV-1">
          <mxGeometry x="160" y="1410" width="120" height="60" as="geometry" />
        </mxCell>
        <mxCell id="qnE6hqJ-58F6FV4E2Yw0-39" value="Kết thúc" style="ellipse;whiteSpace=wrap;html=1;rounded=1;" vertex="1" parent="WIyWlLk6GJQsqaUBKTNV-1">
          <mxGeometry x="180" y="1540" width="80" height="80" as="geometry" />
        </mxCell>
        <mxCell id="qnE6hqJ-58F6FV4E2Yw0-45" value="No" style="text;html=1;align=center;verticalAlign=middle;resizable=0;points=[];autosize=1;strokeColor=none;fillColor=none;rounded=1;" vertex="1" parent="WIyWlLk6GJQsqaUBKTNV-1">
          <mxGeometry x="320" y="535" width="40" height="30" as="geometry" />
        </mxCell>
        <mxCell id="qnE6hqJ-58F6FV4E2Yw0-46" value="Yes" style="text;html=1;align=center;verticalAlign=middle;resizable=0;points=[];autosize=1;strokeColor=none;fillColor=none;rounded=1;" vertex="1" parent="WIyWlLk6GJQsqaUBKTNV-1">
          <mxGeometry x="210" y="600" width="40" height="30" as="geometry" />
        </mxCell>
        <mxCell id="pcFuqE260gQTk7zRgmMG-0" value="Yes" style="text;html=1;align=center;verticalAlign=middle;resizable=0;points=[];autosize=1;strokeColor=none;fillColor=none;rounded=1;" vertex="1" parent="WIyWlLk6GJQsqaUBKTNV-1">
          <mxGeometry x="220" y="850" width="40" height="30" as="geometry" />
        </mxCell>
        <mxCell id="pcFuqE260gQTk7zRgmMG-1" value="Yes" style="text;html=1;align=center;verticalAlign=middle;resizable=0;points=[];autosize=1;strokeColor=none;fillColor=none;rounded=1;" vertex="1" parent="WIyWlLk6GJQsqaUBKTNV-1">
          <mxGeometry x="220" y="1090" width="40" height="30" as="geometry" />
        </mxCell>
        <mxCell id="pcFuqE260gQTk7zRgmMG-2" value="Yes" style="text;html=1;align=center;verticalAlign=middle;resizable=0;points=[];autosize=1;strokeColor=none;fillColor=none;rounded=1;" vertex="1" parent="WIyWlLk6GJQsqaUBKTNV-1">
          <mxGeometry x="220" y="1360" width="40" height="30" as="geometry" />
        </mxCell>
        <mxCell id="pcFuqE260gQTk7zRgmMG-3" value="No" style="text;html=1;align=center;verticalAlign=middle;resizable=0;points=[];autosize=1;strokeColor=none;fillColor=none;rounded=1;" vertex="1" parent="WIyWlLk6GJQsqaUBKTNV-1">
          <mxGeometry x="305" y="1280" width="40" height="30" as="geometry" />
        </mxCell>
        <mxCell id="pcFuqE260gQTk7zRgmMG-4" value="No" style="text;html=1;align=center;verticalAlign=middle;resizable=0;points=[];autosize=1;strokeColor=none;fillColor=none;rounded=1;" vertex="1" parent="WIyWlLk6GJQsqaUBKTNV-1">
          <mxGeometry x="310" y="1020" width="40" height="30" as="geometry" />
        </mxCell>
        <mxCell id="pcFuqE260gQTk7zRgmMG-5" value="No" style="text;html=1;align=center;verticalAlign=middle;resizable=0;points=[];autosize=1;strokeColor=none;fillColor=none;rounded=1;" vertex="1" parent="WIyWlLk6GJQsqaUBKTNV-1">
          <mxGeometry x="300" y="780" width="40" height="30" as="geometry" />
        </mxCell>
        <mxCell id="UxcqCwCVF7L0H1pj8brZ-13" value="" style="edgeStyle=orthogonalEdgeStyle;rounded=0;orthogonalLoop=1;jettySize=auto;html=1;" edge="1" parent="WIyWlLk6GJQsqaUBKTNV-1" source="UxcqCwCVF7L0H1pj8brZ-0" target="UxcqCwCVF7L0H1pj8brZ-1">
          <mxGeometry relative="1" as="geometry" />
        </mxCell>
        <mxCell id="UxcqCwCVF7L0H1pj8brZ-0" value="&amp;nbsp;Bắt đầu" style="rounded=1;whiteSpace=wrap;html=1;" vertex="1" parent="WIyWlLk6GJQsqaUBKTNV-1">
          <mxGeometry x="790" y="90" width="120" height="40" as="geometry" />
        </mxCell>
        <mxCell id="UxcqCwCVF7L0H1pj8brZ-3" value="" style="edgeStyle=orthogonalEdgeStyle;rounded=0;orthogonalLoop=1;jettySize=auto;html=1;" edge="1" parent="WIyWlLk6GJQsqaUBKTNV-1" source="UxcqCwCVF7L0H1pj8brZ-1">
          <mxGeometry relative="1" as="geometry">
            <mxPoint x="850" y="330" as="targetPoint" />
          </mxGeometry>
        </mxCell>
        <mxCell id="UxcqCwCVF7L0H1pj8brZ-15" style="edgeStyle=orthogonalEdgeStyle;rounded=0;orthogonalLoop=1;jettySize=auto;html=1;exitX=1;exitY=0.5;exitDx=0;exitDy=0;" edge="1" parent="WIyWlLk6GJQsqaUBKTNV-1" source="UxcqCwCVF7L0H1pj8brZ-1">
          <mxGeometry relative="1" as="geometry">
            <mxPoint x="850" y="780" as="targetPoint" />
            <Array as="points">
              <mxPoint x="1030" y="230" />
              <mxPoint x="1030" y="780" />
            </Array>
          </mxGeometry>
        </mxCell>
        <mxCell id="UxcqCwCVF7L0H1pj8brZ-16" value="No" style="edgeLabel;html=1;align=center;verticalAlign=middle;resizable=0;points=[];" connectable="0" vertex="1" parent="UxcqCwCVF7L0H1pj8brZ-15">
          <mxGeometry x="-0.9332" y="2" relative="1" as="geometry">
            <mxPoint as="offset" />
          </mxGeometry>
        </mxCell>
        <mxCell id="UxcqCwCVF7L0H1pj8brZ-1" value="Nút trên app được bật" style="rhombus;whiteSpace=wrap;html=1;" vertex="1" parent="WIyWlLk6GJQsqaUBKTNV-1">
          <mxGeometry x="760" y="190" width="180" height="80" as="geometry" />
        </mxCell>
        <mxCell id="UxcqCwCVF7L0H1pj8brZ-8" value="" style="edgeStyle=orthogonalEdgeStyle;rounded=0;orthogonalLoop=1;jettySize=auto;html=1;" edge="1" parent="WIyWlLk6GJQsqaUBKTNV-1" source="UxcqCwCVF7L0H1pj8brZ-4" target="UxcqCwCVF7L0H1pj8brZ-5">
          <mxGeometry relative="1" as="geometry" />
        </mxCell>
        <mxCell id="UxcqCwCVF7L0H1pj8brZ-4" value="Điều hòa ở chế độ tắt" style="rounded=1;whiteSpace=wrap;html=1;labelBackgroundColor=none;" vertex="1" parent="WIyWlLk6GJQsqaUBKTNV-1">
          <mxGeometry x="790" y="330" width="120" height="60" as="geometry" />
        </mxCell>
        <mxCell id="UxcqCwCVF7L0H1pj8brZ-9" value="" style="edgeStyle=orthogonalEdgeStyle;rounded=0;orthogonalLoop=1;jettySize=auto;html=1;" edge="1" parent="WIyWlLk6GJQsqaUBKTNV-1" source="UxcqCwCVF7L0H1pj8brZ-5" target="UxcqCwCVF7L0H1pj8brZ-6">
          <mxGeometry relative="1" as="geometry" />
        </mxCell>
        <mxCell id="UxcqCwCVF7L0H1pj8brZ-5" value="Máy sưởi ở chế độ tắt" style="rounded=1;whiteSpace=wrap;html=1;" vertex="1" parent="WIyWlLk6GJQsqaUBKTNV-1">
          <mxGeometry x="785" y="440" width="130" height="60" as="geometry" />
        </mxCell>
        <mxCell id="UxcqCwCVF7L0H1pj8brZ-10" value="" style="edgeStyle=orthogonalEdgeStyle;rounded=0;orthogonalLoop=1;jettySize=auto;html=1;" edge="1" parent="WIyWlLk6GJQsqaUBKTNV-1" source="UxcqCwCVF7L0H1pj8brZ-6" target="UxcqCwCVF7L0H1pj8brZ-7">
          <mxGeometry relative="1" as="geometry" />
        </mxCell>
        <mxCell id="UxcqCwCVF7L0H1pj8brZ-6" value="Máy hút ẩm ở chế độ tắt" style="rounded=1;whiteSpace=wrap;html=1;" vertex="1" parent="WIyWlLk6GJQsqaUBKTNV-1">
          <mxGeometry x="790" y="570" width="120" height="60" as="geometry" />
        </mxCell>
        <mxCell id="UxcqCwCVF7L0H1pj8brZ-12" value="" style="edgeStyle=orthogonalEdgeStyle;rounded=0;orthogonalLoop=1;jettySize=auto;html=1;" edge="1" parent="WIyWlLk6GJQsqaUBKTNV-1" source="UxcqCwCVF7L0H1pj8brZ-7" target="UxcqCwCVF7L0H1pj8brZ-11">
          <mxGeometry relative="1" as="geometry" />
        </mxCell>
        <mxCell id="UxcqCwCVF7L0H1pj8brZ-7" value="Máy phun sương ở chế độ tắt" style="rounded=1;whiteSpace=wrap;html=1;" vertex="1" parent="WIyWlLk6GJQsqaUBKTNV-1">
          <mxGeometry x="790" y="690" width="120" height="60" as="geometry" />
        </mxCell>
        <mxCell id="UxcqCwCVF7L0H1pj8brZ-11" value="Kết thúc" style="ellipse;whiteSpace=wrap;html=1;" vertex="1" parent="WIyWlLk6GJQsqaUBKTNV-1">
          <mxGeometry x="790" y="800" width="120" height="80" as="geometry" />
        </mxCell>
        <mxCell id="UxcqCwCVF7L0H1pj8brZ-14" value="Yes" style="text;html=1;align=center;verticalAlign=middle;resizable=0;points=[];autosize=1;strokeColor=none;fillColor=none;" vertex="1" parent="WIyWlLk6GJQsqaUBKTNV-1">
          <mxGeometry x="840" y="275" width="40" height="30" as="geometry" />
        </mxCell>
        <mxCell id="UxcqCwCVF7L0H1pj8brZ-17" value="&lt;font style=&quot;font-size: 18px;&quot;&gt;Điều khiển ở chế độ tự động&lt;/font&gt;" style="text;html=1;align=center;verticalAlign=middle;resizable=0;points=[];autosize=1;strokeColor=none;fillColor=none;" vertex="1" parent="WIyWlLk6GJQsqaUBKTNV-1">
          <mxGeometry x="95" y="25" width="250" height="40" as="geometry" />
        </mxCell>
        <mxCell id="UxcqCwCVF7L0H1pj8brZ-18" value="&lt;span style=&quot;font-size: 18px;&quot;&gt;Điều Khiển tắt hết các thiết bị&lt;/span&gt;" style="text;html=1;align=center;verticalAlign=middle;resizable=0;points=[];autosize=1;strokeColor=none;fillColor=none;" vertex="1" parent="WIyWlLk6GJQsqaUBKTNV-1">
          <mxGeometry x="705" y="20" width="260" height="40" as="geometry" />
        </mxCell>
        <mxCell id="UxcqCwCVF7L0H1pj8brZ-19" value="&lt;span style=&quot;font-size: 18px;&quot;&gt;Điều khiển các thiết bị bằng nút bấm&lt;/span&gt;" style="text;html=1;align=center;verticalAlign=middle;resizable=0;points=[];autosize=1;strokeColor=none;fillColor=none;" vertex="1" parent="WIyWlLk6GJQsqaUBKTNV-1">
          <mxGeometry x="1265" y="20" width="310" height="40" as="geometry" />
        </mxCell>
        <mxCell id="UxcqCwCVF7L0H1pj8brZ-20" value="&amp;nbsp;Bắt đầu" style="rounded=1;whiteSpace=wrap;html=1;" vertex="1" parent="WIyWlLk6GJQsqaUBKTNV-1">
          <mxGeometry x="1380" y="80" width="120" height="40" as="geometry" />
        </mxCell>
        <mxCell id="UxcqCwCVF7L0H1pj8brZ-22" value="" style="edgeStyle=orthogonalEdgeStyle;rounded=1;orthogonalLoop=1;jettySize=auto;html=1;labelBackgroundColor=none;fontColor=default;" edge="1" parent="WIyWlLk6GJQsqaUBKTNV-1" source="UxcqCwCVF7L0H1pj8brZ-24">
          <mxGeometry relative="1" as="geometry">
            <mxPoint x="1435" y="330" as="targetPoint" />
          </mxGeometry>
        </mxCell>
        <mxCell id="UxcqCwCVF7L0H1pj8brZ-23" value="" style="edgeStyle=orthogonalEdgeStyle;rounded=1;orthogonalLoop=1;jettySize=auto;html=1;labelBackgroundColor=none;fontColor=default;" edge="1" parent="WIyWlLk6GJQsqaUBKTNV-1" source="UxcqCwCVF7L0H1pj8brZ-24" target="UxcqCwCVF7L0H1pj8brZ-28">
          <mxGeometry relative="1" as="geometry" />
        </mxCell>
        <mxCell id="UxcqCwCVF7L0H1pj8brZ-24" value="Nút điều khiển điều hòa trên app được bật" style="rhombus;whiteSpace=wrap;html=1;labelBackgroundColor=none;rounded=1;" vertex="1" parent="WIyWlLk6GJQsqaUBKTNV-1">
          <mxGeometry x="1290" y="170" width="290" height="80" as="geometry" />
        </mxCell>
        <mxCell id="UxcqCwCVF7L0H1pj8brZ-25" style="edgeStyle=orthogonalEdgeStyle;rounded=1;orthogonalLoop=1;jettySize=auto;html=1;exitX=0.5;exitY=1;exitDx=0;exitDy=0;entryX=0.5;entryY=0;entryDx=0;entryDy=0;labelBackgroundColor=none;fontColor=default;" edge="1" parent="WIyWlLk6GJQsqaUBKTNV-1" source="UxcqCwCVF7L0H1pj8brZ-26" target="UxcqCwCVF7L0H1pj8brZ-31">
          <mxGeometry relative="1" as="geometry" />
        </mxCell>
        <mxCell id="UxcqCwCVF7L0H1pj8brZ-26" value="Điều hòa ở chế độ bật" style="rounded=1;whiteSpace=wrap;html=1;labelBackgroundColor=none;" vertex="1" parent="WIyWlLk6GJQsqaUBKTNV-1">
          <mxGeometry x="1375" y="330" width="120" height="60" as="geometry" />
        </mxCell>
        <mxCell id="UxcqCwCVF7L0H1pj8brZ-27" style="edgeStyle=orthogonalEdgeStyle;rounded=1;orthogonalLoop=1;jettySize=auto;html=1;exitX=0.5;exitY=1;exitDx=0;exitDy=0;labelBackgroundColor=none;fontColor=default;" edge="1" parent="WIyWlLk6GJQsqaUBKTNV-1" source="UxcqCwCVF7L0H1pj8brZ-28">
          <mxGeometry relative="1" as="geometry">
            <mxPoint x="1435" y="420" as="targetPoint" />
            <Array as="points">
              <mxPoint x="1645" y="420" />
              <mxPoint x="1645" y="420" />
            </Array>
          </mxGeometry>
        </mxCell>
        <mxCell id="UxcqCwCVF7L0H1pj8brZ-28" value="Điều hòa ở chế độ tắt" style="rounded=1;whiteSpace=wrap;html=1;labelBackgroundColor=none;" vertex="1" parent="WIyWlLk6GJQsqaUBKTNV-1">
          <mxGeometry x="1650" y="180" width="120" height="60" as="geometry" />
        </mxCell>
        <mxCell id="UxcqCwCVF7L0H1pj8brZ-29" style="edgeStyle=orthogonalEdgeStyle;rounded=1;orthogonalLoop=1;jettySize=auto;html=1;exitX=0.5;exitY=1;exitDx=0;exitDy=0;labelBackgroundColor=none;fontColor=default;" edge="1" parent="WIyWlLk6GJQsqaUBKTNV-1" source="UxcqCwCVF7L0H1pj8brZ-31" target="UxcqCwCVF7L0H1pj8brZ-33">
          <mxGeometry relative="1" as="geometry" />
        </mxCell>
        <mxCell id="UxcqCwCVF7L0H1pj8brZ-30" value="" style="edgeStyle=orthogonalEdgeStyle;rounded=1;orthogonalLoop=1;jettySize=auto;html=1;" edge="1" parent="WIyWlLk6GJQsqaUBKTNV-1" source="UxcqCwCVF7L0H1pj8brZ-31" target="UxcqCwCVF7L0H1pj8brZ-35">
          <mxGeometry relative="1" as="geometry" />
        </mxCell>
        <mxCell id="UxcqCwCVF7L0H1pj8brZ-31" value="Nút điều khiển máy sưởi trên app được bật" style="rhombus;whiteSpace=wrap;html=1;labelBackgroundColor=none;rounded=1;" vertex="1" parent="WIyWlLk6GJQsqaUBKTNV-1">
          <mxGeometry x="1272.5" y="480" width="325" height="80" as="geometry" />
        </mxCell>
        <mxCell id="UxcqCwCVF7L0H1pj8brZ-32" style="edgeStyle=orthogonalEdgeStyle;rounded=1;orthogonalLoop=1;jettySize=auto;html=1;exitX=0.5;exitY=1;exitDx=0;exitDy=0;entryX=0.5;entryY=0;entryDx=0;entryDy=0;" edge="1" parent="WIyWlLk6GJQsqaUBKTNV-1" source="UxcqCwCVF7L0H1pj8brZ-33" target="UxcqCwCVF7L0H1pj8brZ-38">
          <mxGeometry relative="1" as="geometry" />
        </mxCell>
        <mxCell id="UxcqCwCVF7L0H1pj8brZ-33" value="Máy sưởi ở chế độ bật" style="rounded=1;whiteSpace=wrap;html=1;labelBackgroundColor=none;" vertex="1" parent="WIyWlLk6GJQsqaUBKTNV-1">
          <mxGeometry x="1375" y="610" width="120" height="60" as="geometry" />
        </mxCell>
        <mxCell id="UxcqCwCVF7L0H1pj8brZ-58" style="edgeStyle=orthogonalEdgeStyle;rounded=0;orthogonalLoop=1;jettySize=auto;html=1;exitX=0.5;exitY=1;exitDx=0;exitDy=0;" edge="1" parent="WIyWlLk6GJQsqaUBKTNV-1" source="UxcqCwCVF7L0H1pj8brZ-35">
          <mxGeometry relative="1" as="geometry">
            <mxPoint x="1440" y="720" as="targetPoint" />
            <Array as="points">
              <mxPoint x="1760" y="550" />
              <mxPoint x="1760" y="720" />
            </Array>
          </mxGeometry>
        </mxCell>
        <mxCell id="UxcqCwCVF7L0H1pj8brZ-35" value="Máy sưởi ở chế độ tắt" style="rounded=1;whiteSpace=wrap;html=1;" vertex="1" parent="WIyWlLk6GJQsqaUBKTNV-1">
          <mxGeometry x="1650" y="490" width="130" height="60" as="geometry" />
        </mxCell>
        <mxCell id="UxcqCwCVF7L0H1pj8brZ-36" style="edgeStyle=orthogonalEdgeStyle;rounded=1;orthogonalLoop=1;jettySize=auto;html=1;exitX=0.5;exitY=1;exitDx=0;exitDy=0;" edge="1" parent="WIyWlLk6GJQsqaUBKTNV-1" source="UxcqCwCVF7L0H1pj8brZ-38" target="UxcqCwCVF7L0H1pj8brZ-42">
          <mxGeometry relative="1" as="geometry" />
        </mxCell>
        <mxCell id="UxcqCwCVF7L0H1pj8brZ-37" value="" style="edgeStyle=orthogonalEdgeStyle;rounded=1;orthogonalLoop=1;jettySize=auto;html=1;" edge="1" parent="WIyWlLk6GJQsqaUBKTNV-1" source="UxcqCwCVF7L0H1pj8brZ-38" target="UxcqCwCVF7L0H1pj8brZ-40">
          <mxGeometry relative="1" as="geometry" />
        </mxCell>
        <mxCell id="UxcqCwCVF7L0H1pj8brZ-38" value="Nút điều khiển máy hút ẩm trên app được bật" style="rhombus;whiteSpace=wrap;html=1;rounded=1;" vertex="1" parent="WIyWlLk6GJQsqaUBKTNV-1">
          <mxGeometry x="1260" y="760" width="350" height="80" as="geometry" />
        </mxCell>
        <mxCell id="UxcqCwCVF7L0H1pj8brZ-61" style="edgeStyle=orthogonalEdgeStyle;rounded=0;orthogonalLoop=1;jettySize=auto;html=1;exitX=0.5;exitY=1;exitDx=0;exitDy=0;" edge="1" parent="WIyWlLk6GJQsqaUBKTNV-1" source="UxcqCwCVF7L0H1pj8brZ-40">
          <mxGeometry relative="1" as="geometry">
            <mxPoint x="1440" y="1090" as="targetPoint" />
            <Array as="points">
              <mxPoint x="1715" y="1090" />
            </Array>
          </mxGeometry>
        </mxCell>
        <mxCell id="UxcqCwCVF7L0H1pj8brZ-40" value="Máy hút ẩm ở chế độ tắt" style="rounded=1;whiteSpace=wrap;html=1;" vertex="1" parent="WIyWlLk6GJQsqaUBKTNV-1">
          <mxGeometry x="1650" y="770" width="130" height="60" as="geometry" />
        </mxCell>
        <mxCell id="UxcqCwCVF7L0H1pj8brZ-60" style="edgeStyle=orthogonalEdgeStyle;rounded=0;orthogonalLoop=1;jettySize=auto;html=1;exitX=0.5;exitY=1;exitDx=0;exitDy=0;" edge="1" parent="WIyWlLk6GJQsqaUBKTNV-1" source="UxcqCwCVF7L0H1pj8brZ-42" target="UxcqCwCVF7L0H1pj8brZ-45">
          <mxGeometry relative="1" as="geometry" />
        </mxCell>
        <mxCell id="UxcqCwCVF7L0H1pj8brZ-42" value="Máy hút ẩm ở chế độ bật" style="rounded=1;whiteSpace=wrap;html=1;" vertex="1" parent="WIyWlLk6GJQsqaUBKTNV-1">
          <mxGeometry x="1375" y="945" width="120" height="60" as="geometry" />
        </mxCell>
        <mxCell id="UxcqCwCVF7L0H1pj8brZ-44" value="" style="edgeStyle=orthogonalEdgeStyle;rounded=1;orthogonalLoop=1;jettySize=auto;html=1;exitX=0.975;exitY=0.5;exitDx=0;exitDy=0;exitPerimeter=0;" edge="1" parent="WIyWlLk6GJQsqaUBKTNV-1" source="UxcqCwCVF7L0H1pj8brZ-45" target="UxcqCwCVF7L0H1pj8brZ-46">
          <mxGeometry relative="1" as="geometry" />
        </mxCell>
        <mxCell id="UxcqCwCVF7L0H1pj8brZ-63" style="edgeStyle=orthogonalEdgeStyle;rounded=0;orthogonalLoop=1;jettySize=auto;html=1;exitX=0.5;exitY=1;exitDx=0;exitDy=0;entryX=0.5;entryY=0;entryDx=0;entryDy=0;" edge="1" parent="WIyWlLk6GJQsqaUBKTNV-1" source="UxcqCwCVF7L0H1pj8brZ-45" target="UxcqCwCVF7L0H1pj8brZ-62">
          <mxGeometry relative="1" as="geometry" />
        </mxCell>
        <mxCell id="UxcqCwCVF7L0H1pj8brZ-45" value="Nút điều khiển máy phun sương trên app được bật" style="rhombus;whiteSpace=wrap;html=1;rounded=1;" vertex="1" parent="WIyWlLk6GJQsqaUBKTNV-1">
          <mxGeometry x="1260" y="1130" width="350" height="80" as="geometry" />
        </mxCell>
        <mxCell id="UxcqCwCVF7L0H1pj8brZ-65" style="edgeStyle=orthogonalEdgeStyle;rounded=0;orthogonalLoop=1;jettySize=auto;html=1;exitX=0.5;exitY=1;exitDx=0;exitDy=0;" edge="1" parent="WIyWlLk6GJQsqaUBKTNV-1" source="UxcqCwCVF7L0H1pj8brZ-46">
          <mxGeometry relative="1" as="geometry">
            <mxPoint x="1440" y="1410" as="targetPoint" />
            <Array as="points">
              <mxPoint x="1720" y="1410" />
            </Array>
          </mxGeometry>
        </mxCell>
        <mxCell id="UxcqCwCVF7L0H1pj8brZ-46" value="Máy phun sương ở chế độ tắt" style="rounded=1;whiteSpace=wrap;html=1;" vertex="1" parent="WIyWlLk6GJQsqaUBKTNV-1">
          <mxGeometry x="1660" y="1140" width="120" height="60" as="geometry" />
        </mxCell>
        <mxCell id="UxcqCwCVF7L0H1pj8brZ-47" value="No" style="text;html=1;align=center;verticalAlign=middle;resizable=0;points=[];autosize=1;strokeColor=none;fillColor=none;rounded=1;" vertex="1" parent="WIyWlLk6GJQsqaUBKTNV-1">
          <mxGeometry x="1590" y="210" width="40" height="30" as="geometry" />
        </mxCell>
        <mxCell id="UxcqCwCVF7L0H1pj8brZ-48" value="Yes" style="text;html=1;align=center;verticalAlign=middle;resizable=0;points=[];autosize=1;strokeColor=none;fillColor=none;rounded=1;" vertex="1" parent="WIyWlLk6GJQsqaUBKTNV-1">
          <mxGeometry x="1425" y="280" width="40" height="30" as="geometry" />
        </mxCell>
        <mxCell id="UxcqCwCVF7L0H1pj8brZ-49" value="Yes" style="text;html=1;align=center;verticalAlign=middle;resizable=0;points=[];autosize=1;strokeColor=none;fillColor=none;rounded=1;" vertex="1" parent="WIyWlLk6GJQsqaUBKTNV-1">
          <mxGeometry x="1435" y="565" width="40" height="30" as="geometry" />
        </mxCell>
        <mxCell id="UxcqCwCVF7L0H1pj8brZ-50" value="Yes" style="text;html=1;align=center;verticalAlign=middle;resizable=0;points=[];autosize=1;strokeColor=none;fillColor=none;rounded=1;" vertex="1" parent="WIyWlLk6GJQsqaUBKTNV-1">
          <mxGeometry x="1425" y="880" width="40" height="30" as="geometry" />
        </mxCell>
        <mxCell id="UxcqCwCVF7L0H1pj8brZ-51" value="Yes" style="text;html=1;align=center;verticalAlign=middle;resizable=0;points=[];autosize=1;strokeColor=none;fillColor=none;rounded=1;" vertex="1" parent="WIyWlLk6GJQsqaUBKTNV-1">
          <mxGeometry x="1440" y="1230" width="40" height="30" as="geometry" />
        </mxCell>
        <mxCell id="UxcqCwCVF7L0H1pj8brZ-52" value="No" style="text;html=1;align=center;verticalAlign=middle;resizable=0;points=[];autosize=1;strokeColor=none;fillColor=none;rounded=1;" vertex="1" parent="WIyWlLk6GJQsqaUBKTNV-1">
          <mxGeometry x="1620" y="1139" width="40" height="30" as="geometry" />
        </mxCell>
        <mxCell id="UxcqCwCVF7L0H1pj8brZ-53" value="No" style="text;html=1;align=center;verticalAlign=middle;resizable=0;points=[];autosize=1;strokeColor=none;fillColor=none;rounded=1;" vertex="1" parent="WIyWlLk6GJQsqaUBKTNV-1">
          <mxGeometry x="1600" y="770" width="40" height="30" as="geometry" />
        </mxCell>
        <mxCell id="UxcqCwCVF7L0H1pj8brZ-54" value="No" style="text;html=1;align=center;verticalAlign=middle;resizable=0;points=[];autosize=1;strokeColor=none;fillColor=none;rounded=1;" vertex="1" parent="WIyWlLk6GJQsqaUBKTNV-1">
          <mxGeometry x="1600" y="490" width="40" height="30" as="geometry" />
        </mxCell>
        <mxCell id="UxcqCwCVF7L0H1pj8brZ-56" value="Kết thúc" style="ellipse;whiteSpace=wrap;html=1;" vertex="1" parent="WIyWlLk6GJQsqaUBKTNV-1">
          <mxGeometry x="1375" y="1430" width="120" height="80" as="geometry" />
        </mxCell>
        <mxCell id="UxcqCwCVF7L0H1pj8brZ-64" style="edgeStyle=orthogonalEdgeStyle;rounded=0;orthogonalLoop=1;jettySize=auto;html=1;exitX=0.5;exitY=1;exitDx=0;exitDy=0;entryX=0.5;entryY=0;entryDx=0;entryDy=0;" edge="1" parent="WIyWlLk6GJQsqaUBKTNV-1" source="UxcqCwCVF7L0H1pj8brZ-62" target="UxcqCwCVF7L0H1pj8brZ-56">
          <mxGeometry relative="1" as="geometry" />
        </mxCell>
        <mxCell id="UxcqCwCVF7L0H1pj8brZ-62" value="Máy phun sương ở chế độ bật" style="rounded=1;whiteSpace=wrap;html=1;" vertex="1" parent="WIyWlLk6GJQsqaUBKTNV-1">
          <mxGeometry x="1375" y="1310" width="120" height="60" as="geometry" />
        </mxCell>
      </root>
    </mxGraphModel>
  </diagram>
</mxfile>
